<svg xmlns="http://www.w3.org/2000/svg" width="1200" height="630" viewBox="0 0 1200 630">
  <defs>
    <linearGradient id="bg" x1="0" x2="1" y1="0" y2="1">
      <stop offset="0" stop-color="#050507"/>
      <stop offset=".48" stop-color="#11111d"/>
      <stop offset="1" stop-color="#220814"/>
    </linearGradient>
    <radialGradient id="r" cx="50%" cy="40%" r="65%">
      <stop offset="0" stop-color="#ff3156" stop-opacity=".55"/>
      <stop offset=".45" stop-color="#7d4dff" stop-opacity=".26"/>
      <stop offset="1" stop-color="#050507" stop-opacity="0"/>
    </radialGradient>
  </defs>
  <rect width="1200" height="630" fill="url(#bg)"/>
  <rect width="1200" height="630" fill="url(#r)"/>
  <g opacity=".18" stroke="#fff">
    <path d="M0 110h1200M0 220h1200M0 330h1200M0 440h1200M0 550h1200"/>
    <path d="M120 0v630M240 0v630M360 0v630M480 0v630M600 0v630M720 0v630M840 0v630M960 0v630M1080 0v630"/>
  </g>
  <text x="80" y="260" font-family="Arial, sans-serif" font-size="104" font-weight="900" fill="#fff">BEST SOUND</text>
  <text x="84" y="338" font-family="Arial, sans-serif" font-size="38" font-weight="700" fill="#f3c35a">Concert Agency • Premium Live Production</text>
  <text x="84" y="418" font-family="Arial, sans-serif" font-size="28" fill="#b8b8c8">Туры, артисты, афиша, медиа и заявки</text>
</svg>
